HIERARCHY
ROOT Hips
{
	OFFSET 0.327225 85.456291 8.060652
	CHANNELS 6 Xposition Yposition Zposition Zrotation Yrotation Xrotation 
	JOINT Spine
	{
		OFFSET 0.000000 8.814246 -2.080107
		CHANNELS 3 Zrotation Yrotation Xrotation
		JOINT Spine1
		{
			OFFSET -0.000000 8.844141 0.000000
			CHANNELS 3 Zrotation Yrotation Xrotation
			JOINT Spine2
			{
				OFFSET 0.000000 11.682268 0.000000
				CHANNELS 3 Zrotation Yrotation Xrotation
				JOINT Spine3
				{
					OFFSET 0.000000 11.746700 0.000000
					CHANNELS 3 Zrotation Yrotation Xrotation
					JOINT Neck
					{
						OFFSET 0.000000 17.658264 0.000000
						CHANNELS 3 Zrotation Yrotation Xrotation
						JOINT Neck1
						{
							OFFSET 0.000000 5.101515 0.000000
							CHANNELS 3 Zrotation Yrotation Xrotation
							JOINT Head
							{
								OFFSET -0.000000 5.101515 -0.000000
								CHANNELS 3 Zrotation Yrotation Xrotation
								JOINT HeadEnd
								{
									OFFSET 0.000000 11.655085 0.000000
									CHANNELS 3 Zrotation Yrotation Xrotation
									End Site
									{
										OFFSET 0.000000 0.000000 0.000000
									}
								}
							}
						}
					}
					JOINT RightShoulder
					{
						OFFSET -2.625389 11.175210 -0.000000
						CHANNELS 3 Zrotation Yrotation Xrotation
						JOINT RightArm
						{
							OFFSET 0.000000 10.434715 0.000000
							CHANNELS 3 Zrotation Yrotation Xrotation
							JOINT RightForeArm
							{
								OFFSET -0.000000 29.628420 -0.000000
								CHANNELS 3 Zrotation Yrotation Xrotation
								JOINT RightHand
								{
									OFFSET 0.000000 22.857611 -0.000000
									CHANNELS 3 Zrotation Yrotation Xrotation
									JOINT RightHandThumb1
									{
										OFFSET -2.867323 3.959563 2.944291
										CHANNELS 3 Zrotation Yrotation Xrotation
										JOINT RightHandThumb2
										{
											OFFSET -0.000000 3.350399 0.000000
											CHANNELS 3 Zrotation Yrotation Xrotation
											JOINT RightHandThumb3
											{
												OFFSET -0.000000 3.756509 0.000000
												CHANNELS 3 Zrotation Yrotation Xrotation
												JOINT RightHandThumb4
												{
													OFFSET -0.000000 3.147345 0.000000
													CHANNELS 3 Zrotation Yrotation Xrotation
													End Site
													{
														OFFSET 0.000000 0.000000 0.000000
													}
												}
											}
										}
									}
									JOINT RightHandIndex1
									{
										OFFSET -0.086752 10.030893 2.345280
										CHANNELS 3 Zrotation Yrotation Xrotation
										JOINT RightHandIndex2
										{
											OFFSET -0.000000 4.061090 -0.000000
											CHANNELS 3 Zrotation Yrotation Xrotation
											JOINT RightHandIndex3
											{
												OFFSET 0.000000 3.248873 -0.000000
												CHANNELS 3 Zrotation Yrotation Xrotation
												JOINT RightHandIndex4
												{
													OFFSET 0.000000 2.639709 -0.000000
													CHANNELS 3 Zrotation Yrotation Xrotation
													End Site
													{
														OFFSET 0.000000 0.000000 0.000000
													}
												}
											}
										}
									}
									JOINT RightHandMiddle1
									{
										OFFSET 0.104102 9.502952 0.006768
										CHANNELS 3 Zrotation Yrotation Xrotation
										JOINT RightHandMiddle2
										{
											OFFSET -0.000000 4.568727 -0.000000
											CHANNELS 3 Zrotation Yrotation Xrotation
											JOINT RightHandMiddle3
											{
												OFFSET -0.000000 3.654981 -0.000000
												CHANNELS 3 Zrotation Yrotation Xrotation
												JOINT RightHandMiddle4
												{
													OFFSET -0.000000 2.741236 -0.000000
													CHANNELS 3 Zrotation Yrotation Xrotation
													End Site
													{
														OFFSET 0.000000 0.000000 0.000000
													}
												}
											}
										}
									}
									JOINT RightHandRing1
									{
										OFFSET 0.086752 8.921708 -2.267442
										CHANNELS 3 Zrotation Yrotation Xrotation
										JOINT RightHandRing2
										{
											OFFSET -0.000000 4.061090 0.000000
											CHANNELS 3 Zrotation Yrotation Xrotation
											JOINT RightHandRing3
											{
												OFFSET 0.000000 3.654981 -0.000000
												CHANNELS 3 Zrotation Yrotation Xrotation
												JOINT RightHandRing4
												{
													OFFSET 0.000000 2.741236 -0.000000
													CHANNELS 3 Zrotation Yrotation Xrotation
													End Site
													{
														OFFSET 0.000000 0.000000 0.000000
													}
												}
											}
										}
									}
									JOINT RightHandPinky1
									{
										OFFSET -0.173504 7.976997 -4.467199
										CHANNELS 3 Zrotation Yrotation Xrotation
										JOINT RightHandPinky2
										{
											OFFSET -0.000000 3.350399 0.000000
											CHANNELS 3 Zrotation Yrotation Xrotation
											JOINT RightHandPinky3
											{
												OFFSET 0.000000 2.842763 -0.000000
												CHANNELS 3 Zrotation Yrotation Xrotation
												JOINT RightHandPinky4
												{
													OFFSET -0.000000 2.639709 0.000000
													CHANNELS 3 Zrotation Yrotation Xrotation
													End Site
													{
														OFFSET 0.000000 0.000000 0.000000
													}
												}
											}
										}
									}
									JOINT RightForeArmEnd
									{
										OFFSET 0.000000 0.000000 0.000000
										CHANNELS 3 Zrotation Yrotation Xrotation
										End Site
										{
											OFFSET 0.000000 0.000000 0.000000
										}
									}
								}
								JOINT RightArmEnd
								{
									OFFSET 0.000000 0.000000 0.000000
									CHANNELS 3 Zrotation Yrotation Xrotation
									End Site
									{
										OFFSET 0.000000 0.000000 0.000000
									}
								}
							}
						}
					}
					JOINT LeftShoulder
					{
						OFFSET 2.625389 11.175210 0.000000
						CHANNELS 3 Zrotation Yrotation Xrotation
						JOINT LeftArm
						{
							OFFSET -0.000000 10.813635 0.000000
							CHANNELS 3 Zrotation Yrotation Xrotation
							JOINT LeftForeArm
							{
								OFFSET 0.000000 28.724781 -0.000000
								CHANNELS 3 Zrotation Yrotation Xrotation
								JOINT LeftHand
								{
									OFFSET 0.644384 25.716167 -0.328871
									CHANNELS 3 Zrotation Yrotation Xrotation
									JOINT LeftHandThumb1
									{
										OFFSET 2.867323 3.959563 2.944291
										CHANNELS 3 Zrotation Yrotation Xrotation
										JOINT LeftHandThumb2
										{
											OFFSET 0.000000 3.350399 -0.000000
											CHANNELS 3 Zrotation Yrotation Xrotation
											JOINT LeftHandThumb3
											{
												OFFSET 0.000000 3.756509 0.000000
												CHANNELS 3 Zrotation Yrotation Xrotation
												JOINT LeftHandThumb4
												{
													OFFSET 0.000000 3.100000 0.000000
													CHANNELS 3 Zrotation Yrotation Xrotation
													End Site
													{
														OFFSET 0.000000 0.000000 0.000000
													}
												}
											}
										}
									}
									JOINT LeftHandIndex1
									{
										OFFSET 0.086752 10.030893 2.345280
										CHANNELS 3 Zrotation Yrotation Xrotation
										JOINT LeftHandIndex2
										{
											OFFSET 0.000000 4.061090 0.000000
											CHANNELS 3 Zrotation Yrotation Xrotation
											JOINT LeftHandIndex3
											{
												OFFSET -0.000000 3.248873 -0.000000
												CHANNELS 3 Zrotation Yrotation Xrotation
												JOINT LeftHandIndex4
												{
													OFFSET -0.000000 2.639709 -0.000000
													CHANNELS 3 Zrotation Yrotation Xrotation
													End Site
													{
														OFFSET 0.000000 0.000000 0.000000
													}
												}
											}
										}
									}
									JOINT LeftHandMiddle1
									{
										OFFSET -0.104102 9.502952 0.006768
										CHANNELS 3 Zrotation Yrotation Xrotation
										JOINT LeftHandMiddle2
										{
											OFFSET 0.000000 4.568727 0.000000
											CHANNELS 3 Zrotation Yrotation Xrotation
											JOINT LeftHandMiddle3
											{
												OFFSET -0.000000 3.654981 -0.000000
												CHANNELS 3 Zrotation Yrotation Xrotation
												JOINT LeftHandMiddle4
												{
													OFFSET -0.000000 2.741236 -0.000000
													CHANNELS 3 Zrotation Yrotation Xrotation
													End Site
													{
														OFFSET 0.000000 0.000000 0.000000
													}
												}
											}
										}
									}
									JOINT LeftHandRing1
									{
										OFFSET -0.086752 8.921708 -2.267442
										CHANNELS 3 Zrotation Yrotation Xrotation
										JOINT LeftHandRing2
										{
											OFFSET 0.000000 4.061090 0.000000
											CHANNELS 3 Zrotation Yrotation Xrotation
											JOINT LeftHandRing3
											{
												OFFSET -0.000000 3.654981 -0.000000
												CHANNELS 3 Zrotation Yrotation Xrotation
												JOINT LeftHandRing4
												{
													OFFSET -0.000000 2.741236 -0.000000
													CHANNELS 3 Zrotation Yrotation Xrotation
													End Site
													{
														OFFSET 0.000000 0.000000 0.000000
													}
												}
											}
										}
									}
									JOINT LeftHandPinky1
									{
										OFFSET 0.173504 7.976997 -4.467199
										CHANNELS 3 Zrotation Yrotation Xrotation
										JOINT LeftHandPinky2
										{
											OFFSET 0.000000 3.350399 0.000000
											CHANNELS 3 Zrotation Yrotation Xrotation
											JOINT LeftHandPinky3
											{
												OFFSET 0.000000 2.842763 0.000000
												CHANNELS 3 Zrotation Yrotation Xrotation
												JOINT LeftHandPinky4
												{
													OFFSET 0.000000 2.639709 -0.000000
													CHANNELS 3 Zrotation Yrotation Xrotation
													End Site
													{
														OFFSET 0.000000 0.000000 0.000000
													}
												}
											}
										}
									}
									JOINT LeftForeArmEnd
									{
										OFFSET 0.000000 0.000000 0.000000
										CHANNELS 3 Zrotation Yrotation Xrotation
										End Site
										{
											OFFSET 0.000000 0.000000 0.000000
										}
									}
								}
								JOINT LeftArmEnd
								{
									OFFSET 0.000000 0.000000 0.000000
									CHANNELS 3 Zrotation Yrotation Xrotation
									End Site
									{
										OFFSET 0.000000 0.000000 0.000000
									}
								}
							}
						}
					}
				}
			}
		}
	}
	JOINT RightUpLeg
	{
		OFFSET -11.289943 0.000000 -0.000000
		CHANNELS 3 Zrotation Yrotation Xrotation
		JOINT RightLeg
		{
			OFFSET -0.000000 -38.200325 -0.000000
			CHANNELS 3 Zrotation Yrotation Xrotation
			JOINT RightFoot
			{
				OFFSET -0.000000 -39.900856 0.000000
				CHANNELS 3 Zrotation Yrotation Xrotation
				JOINT RightToeBase
				{
					OFFSET 0.000000 -0.000000 15.261641
					CHANNELS 3 Zrotation Yrotation Xrotation
					JOINT RightToeBaseEnd
					{
						OFFSET -0.000000 -0.000000 7.370709
						CHANNELS 3 Zrotation Yrotation Xrotation
						End Site
						{
							OFFSET 0.000000 0.000000 0.000000
						}
					}
				}
				JOINT RightLegEnd
				{
					OFFSET 0.000000 0.000000 0.000000
					CHANNELS 3 Zrotation Yrotation Xrotation
					End Site
					{
						OFFSET 0.000000 0.000000 0.000000
					}
				}
			}
			JOINT RightUpLegEnd
			{
				OFFSET 0.000000 0.000000 0.000000
				CHANNELS 3 Zrotation Yrotation Xrotation
				End Site
				{
					OFFSET 0.000000 0.000000 0.000000
				}
			}
		}
	}
	JOINT LeftUpLeg
	{
		OFFSET 11.315661 -0.000000 0.000000
		CHANNELS 3 Zrotation Yrotation Xrotation
		JOINT LeftLeg
		{
			OFFSET -0.000000 -38.200325 -0.000000
			CHANNELS 3 Zrotation Yrotation Xrotation
			JOINT LeftFoot
			{
				OFFSET -0.000000 -39.900856 0.000000
				CHANNELS 3 Zrotation Yrotation Xrotation
				JOINT LeftToeBase
				{
					OFFSET 0.000000 -0.000000 15.261641
					CHANNELS 3 Zrotation Yrotation Xrotation
					JOINT LeftToeBaseEnd
					{
						OFFSET -0.000000 0.000000 7.539996
						CHANNELS 3 Zrotation Yrotation Xrotation
						End Site
						{
							OFFSET 0.000000 0.000000 0.000000
						}
					}
				}
				JOINT LeftLegEnd
				{
					OFFSET 0.000000 0.000000 0.000000
					CHANNELS 3 Zrotation Yrotation Xrotation
					End Site
					{
						OFFSET 0.000000 0.000000 0.000000
					}
				}
			}
			JOINT LeftUpLegEnd
			{
				OFFSET 0.000000 0.000000 0.000000
				CHANNELS 3 Zrotation Yrotation Xrotation
				End Site
				{
					OFFSET 0.000000 0.000000 0.000000
				}
			}
		}
	}
}
MOTION
Frames: 4
Frame Time: 0.016667
0.327225 85.456291 8.060652 -1.060160 -0.454608 -23.207590 2.322709 -0.297220 12.236113 0.341520 -0.185955 6.095392 -2.927263 -0.107008 18.660194 -3.766547 -0.127707 10.148421 -8.554237 3.011372 10.670642 -1.052736 0.746531 -1.072306 -1.427619 -1.392408 -19.988150 0.000000 0.000000 0.000000 91.634735 -0.442339 15.425826 54.665524 -30.476999 24.470922 -0.226760 15.539892 21.119818 5.921650 20.191023 -2.405218 13.495595 32.597275 68.996590 0.000003 0.000003 0.000009 0.000134 -0.000001 0.000005 0.000000 0.000000 0.000000 13.796139 -10.938026 1.277707 9.837293 0.396116 1.450871 9.837299 -0.105893 1.372970 0.000000 0.000000 0.000000 13.018492 -5.780196 0.547168 9.259837 0.477044 0.562421 9.259580 -0.040827 0.482464 0.000000 0.000000 0.000000 14.759333 1.948519 1.684468 10.371669 -0.929828 -0.808298 10.370477 0.055660 -0.609709 0.000000 0.000000 0.000000 15.656369 10.308870 0.915056 10.776875 -1.765082 -2.455533 10.769448 0.171573 -2.081882 0.000000 0.000000 0.000000 0.000000 0.000000 0.000000 0.000000 0.000000 0.000000 -92.594154 0.517031 10.482300 -55.364445 20.044870 9.159415 -0.966445 -10.157828 39.026314 -1.252406 -30.847612 -11.535672 -13.450125 -32.590797 68.901459 0.011028 0.011022 -0.022262 0.011023 0.011028 -0.022273 0.000000 0.000000 0.000000 -11.776063 -6.462783 0.977572 -8.183229 0.418838 -1.217398 -8.182890 -0.087328 -1.146339 0.000000 0.000000 0.000000 -11.505368 -1.486834 0.105365 -8.159037 0.488683 -0.513053 -8.158793 0.006084 -0.433014 0.000000 0.000000 0.000000 -14.670410 7.057579 0.049814 -10.405230 -0.938801 0.816612 -10.403862 0.035557 0.635699 0.000000 0.000000 0.000000 -17.068953 15.932078 -0.778814 -11.779098 -1.717910 2.681325 -11.773773 0.235106 2.277516 0.000000 0.000000 0.000000 0.000000 0.000000 0.000000 0.000000 0.000000 0.000000 -5.285096 -1.941737 14.891479 -0.561212 -0.964231 30.047485 4.622950 -4.876317 6.481491 -0.907080 1.864290 -16.513636 0.000000 0.000000 0.000000 0.000000 0.000000 0.000000 0.000000 0.000000 0.000000 4.159544 -1.943718 10.882134 0.172503 0.240085 35.792629 -0.279231 6.748767 5.369925 0.530027 -0.512076 -20.503864 0.000000 0.000000 0.000000 0.000000 0.000000 0.000000 0.000000 0.000000 0.000000 
0.274457 85.350563 7.316073 -0.737149 -0.169369 -22.382885 1.411990 -0.230313 11.964189 0.591217 -0.162930 6.916476 -2.988716 0.203675 17.225615 -2.811122 -0.218596 9.076225 -9.113141 4.440924 10.656906 -1.990727 0.807298 -1.816222 -1.396682 -0.403472 -19.180443 0.000000 0.000000 0.000000 92.086746 -0.172929 15.081635 54.198997 -29.278242 23.095221 0.280502 16.896450 20.685146 5.120557 18.148308 -0.702232 -5.550505 0.870865 47.086243 -0.000008 0.000008 12.477880 0.000012 0.000053 9.078447 0.000016 0.000004 -0.000017 14.809019 0.879383 -1.164139 9.417605 0.021362 0.192118 9.497169 0.075840 0.169210 -0.000017 -0.000002 0.000000 12.823188 0.341049 -3.059166 8.589252 -0.021230 0.054236 8.440057 0.018746 0.057904 0.000010 -0.000010 0.000025 13.135363 -0.432020 -2.833649 9.688810 0.038268 0.002994 9.505397 -0.037535 -0.001933 -0.000002 0.000537 0.000003 13.072762 -1.158913 -4.765625 10.131285 -0.027735 0.275478 9.886549 -0.223969 0.166105 -0.000781 0.000009 0.000053 0.000000 0.000000 0.000000 0.000000 0.000000 0.000000 -90.330086 -0.269613 10.791050 -57.677967 21.364674 6.774075 -1.133558 -9.465898 40.363853 0.536192 -29.456070 -5.878737 5.825090 -0.855224 47.067745 0.000014 0.000021 12.885767 -0.000090 -0.000005 9.389800 0.000132 -0.000018 0.000458 -12.345234 0.855015 -0.471664 -9.070991 -0.050769 -0.164728 -9.062636 0.029998 -0.160609 0.000014 0.000521 0.000022 -12.663302 0.357114 -2.668347 -8.538408 -0.048180 -0.070804 -8.390633 0.003092 -0.055764 0.000606 -0.000043 0.000064 -15.113350 -0.415890 -3.224042 -9.488621 0.077583 0.108312 -9.458147 -0.012909 0.101236 0.000362 -0.000011 -0.000002 -15.842979 -1.214429 -4.714236 -9.994042 0.173172 0.379056 -9.769358 -0.063270 0.356018 0.000415 -0.000016 -0.000052 0.000000 0.000000 0.000000 0.000000 0.000000 0.000000 -6.542284 1.019347 13.920384 -0.414679 -0.849235 26.970779 3.302230 -4.223669 7.837834 -0.890270 1.755677 -16.824375 0.000000 0.000000 0.000000 0.000000 0.000000 0.000000 0.000000 0.000000 0.000000 3.812246 -2.361656 11.202738 0.301872 0.283062 35.457817 -0.574565 7.952737 4.755991 0.356849 -0.890147 -20.098473 0.000000 0.000000 0.000000 0.000000 0.000000 0.000000 0.000000 0.000000 0.000000 
0.265222 85.362015 7.308516 -0.732998 -0.156669 -22.353563 1.471899 -0.235000 11.976650 0.583671 -0.147309 6.969956 -2.998357 0.113276 17.141315 -2.758130 -0.221529 8.993711 -9.125138 4.464331 10.712682 -1.921391 0.883116 -1.881131 -1.429699 -0.459588 -19.192074 0.000000 0.000000 0.000000 92.045990 -0.102205 15.086336 54.164780 -29.593071 23.121786 0.284765 16.820194 20.780359 4.982825 18.247213 -1.066827 -5.559391 0.862664 47.078922 0.000002 0.000012 12.449419 0.000012 0.000054 9.091981 0.000034 0.000012 -0.000041 14.540825 0.925179 -1.628688 9.240005 0.015325 0.170634 9.338761 0.070707 0.146072 -0.000014 0.000004 -0.000010 12.629940 0.359627 -3.477664 8.408770 -0.026114 0.049559 8.261867 0.017818 0.053245 0.000030 -0.000043 0.000021 12.964273 -0.454703 -3.249497 9.474413 0.049845 0.003056 9.306596 -0.033522 -0.000396 -0.000024 0.000337 -0.000016 12.961989 -1.226820 -5.094168 9.911685 0.002135 0.255304 9.656626 -0.213102 0.150526 -0.000755 0.000011 0.000025 0.000000 0.000000 0.000000 0.000000 0.000000 0.000000 -90.399384 -0.300381 10.756917 -57.960648 21.583147 6.855000 -1.147809 -9.487720 40.379086 0.640193 -29.420578 -5.935929 5.860538 -0.860656 47.077751 0.000016 0.000037 12.934854 -0.000101 -0.000002 9.427404 0.000240 -0.000002 0.000675 -12.143457 0.904504 -0.545399 -9.067336 -0.052979 -0.135270 -9.075418 0.031071 -0.137734 0.000015 0.000562 0.000016 -12.510371 0.377683 -2.725953 -8.521921 -0.051195 -0.063118 -8.385924 0.002378 -0.049089 0.000585 -0.000038 0.000018 -15.119495 -0.440961 -3.283073 -9.520795 0.083568 0.102662 -9.464667 -0.011853 0.095913 0.000478 0.000010 0.000003 -15.933103 -1.289397 -4.764097 -10.027302 0.188340 0.368113 -9.788549 -0.058488 0.341990 0.000491 0.000005 -0.000053 0.000000 0.000000 0.000000 0.000000 0.000000 0.000000 -6.450804 0.982227 13.789897 -0.411086 -0.836298 27.011286 3.178280 -4.108078 7.943732 -0.893254 1.727370 -16.847153 0.000000 0.000000 0.000000 0.000000 0.000000 0.000000 0.000000 0.000000 0.000000 3.769067 -2.444994 11.200811 0.306674 0.285609 35.504745 -0.544961 7.972385 4.801246 0.351420 -0.874326 -20.217344 0.000000 0.000000 0.000000 0.000000 0.000000 0.000000 0.000000 0.000000 0.000000 
0.243833 85.387390 7.318589 -0.702247 -0.137880 -22.309862 1.482596 -0.233282 11.942716 0.594050 -0.143279 6.928443 -2.985042 0.008665 17.096262 -2.699218 -0.246863 8.935469 -9.152102 4.455637 10.838810 -1.860391 0.934738 -1.881536 -1.437500 -0.497963 -19.224571 0.000000 0.000000 0.000000 92.054901 -0.084029 15.029016 54.087746 -29.788065 23.222557 0.268363 16.651649 20.752422 4.875303 17.993576 -1.229868 -5.530681 0.856007 47.066631 0.000004 0.000013 12.379963 0.000010 0.000055 9.064725 0.000034 0.000012 -0.000041 14.458599 0.937955 -1.999605 9.170184 0.013863 0.149624 9.282980 0.069331 0.124970 -0.000013 0.000004 -0.000012 12.580653 0.364929 -3.786879 8.324135 -0.027982 0.045016 8.176094 0.017218 0.049068 0.000029 -0.000054 0.000023 12.820380 -0.461282 -3.518029 9.313898 0.056872 0.000169 9.165967 -0.030060 -0.001711 -0.000024 0.000065 -0.000015 12.791489 -1.247492 -5.271809 9.707139 0.023588 0.216252 9.458569 -0.201004 0.122244 -0.000778 0.000011 0.000011 0.000000 0.000000 0.000000 0.000000 0.000000 0.000000 -90.429710 -0.304962 10.717967 -58.051105 21.625422 6.980588 -1.168586 -9.427680 40.336514 0.423368 -29.180258 -6.077029 5.880659 -0.864560 47.082905 0.000014 0.000037 12.962775 -0.000108 -0.000002 9.445273 0.000210 -0.000001 0.000824 -11.942456 0.918960 -0.602103 -9.046011 -0.054095 -0.114780 -9.064935 0.031872 -0.120744 0.000013 0.000493 0.000016 -12.353459 0.384137 -2.772791 -8.498710 -0.052362 -0.057782 -8.364441 0.001782 -0.043930 0.000625 -0.000040 -0.000012 -15.080404 -0.449921 -3.336090 -9.531064 0.085896 0.101124 -9.455083 -0.010917 0.093932 0.000587 0.000011 0.000003 -15.977428 -1.316936 -4.814898 -10.047254 0.196171 0.370699 -9.796218 -0.053864 0.339220 0.000529 0.000005 -0.000054 0.000000 0.000000 0.000000 0.000000 0.000000 0.000000 -6.387757 0.938575 13.809419 -0.407291 -0.825137 26.852671 3.072058 -4.088507 8.106360 -0.898267 1.700751 -16.893650 0.000000 0.000000 0.000000 0.000000 0.000000 0.000000 0.000000 0.000000 0.000000 3.709466 -2.509969 11.312828 0.308262 0.292100 35.248466 -0.485294 8.034124 4.959138 0.354473 -0.858306 -20.295982 0.000000 0.000000 0.000000 0.000000 0.000000 0.000000 0.000000 0.000000 0.000000 
